<svg width="16" height="20" viewBox="0 0 16 20" fill="none" xmlns="http://www.w3.org/2000/svg">
<path d="M4.00122 3.99999C4.00122 5.06085 4.42265 6.07827 5.17279 6.82841C5.92293 7.57855 6.94035 7.99998 8.00121 7.99998C9.06207 7.99998 10.0795 7.57855 10.8296 6.82841C11.5798 6.07827 12.0012 5.06085 12.0012 3.99999C12.0012 2.93913 11.5798 1.92171 10.8296 1.17157C10.0795 0.421426 9.06207 0 8.00121 0C6.94035 0 5.92293 0.421426 5.17279 1.17157C4.42265 1.92171 4.00122 2.93913 4.00122 3.99999Z" fill="#424242"/>
<path d="M16.0012 15.5C16.0012 17.9853 16.0012 20 8.0012 20C0.0012207 20 0.0012207 17.9853 0.0012207 15.5C0.0012207 13.0147 3.58293 11 8.0012 11C12.4195 11 16.0012 13.0147 16.0012 15.5Z" fill="#424242"/>
</svg>
