<svg width="25" height="31" viewBox="0 0 25 31" fill="none" xmlns="http://www.w3.org/2000/svg">
<path d="M6.19995 6.2C6.19995 7.84434 6.85316 9.42134 8.01589 10.5841C9.17861 11.7468 10.7556 12.4 12.4 12.4C14.0443 12.4 15.6213 11.7468 16.784 10.5841C17.9467 9.42134 18.6 7.84434 18.6 6.2C18.6 4.55566 17.9467 2.97866 16.784 1.81594C15.6213 0.653212 14.0443 0 12.4 0C10.7556 0 9.17861 0.653212 8.01589 1.81594C6.85316 2.97866 6.19995 4.55566 6.19995 6.2Z" fill="#0B96DF"/>
<path d="M24.8 24.0248C24.8 27.877 24.8 30.9998 12.4 30.9998C0 30.9998 0 27.877 0 24.0248C0 20.1726 5.55167 17.0498 12.4 17.0498C19.2484 17.0498 24.8 20.1726 24.8 24.0248Z" fill="#0B96DF"/>
</svg>
